<?xml version="1.0" encoding="iso-8859-1"?>
<!-- Generator: Adobe Illustrator 19.0.0, SVG Export Plug-In . SVG Version: 6.00 Build 0)  -->
<svg version="1.1" id="Capa_1" xmlns="http://www.w3.org/2000/svg" xmlns:xlink="http://www.w3.org/1999/xlink" x="0px" y="0px"
	 viewBox="0 0 391.758 391.758" style="enable-background:new 0 0 391.758 391.758;" xml:space="preserve">
<g>
	<path d="M152.963,333.214c-45.058-14.06-80.359-49.355-94.42-94.42c-0.502-1.61-2.191-2.516-3.838-2.008
		c-1.604,0.508-2.51,2.222-2.008,3.838c14.666,46.974,51.461,83.775,98.435,98.435c0.306,0.098,0.618,0.141,0.918,0.141
		c1.298,0,2.51-0.839,2.92-2.149C155.473,335.436,154.573,333.722,152.963,333.214 M158.448,315.683
		c-39.31-12.267-70.106-43.057-82.373-82.367c-0.502-1.61-2.204-2.516-3.838-2.008c-1.61,0.508-2.51,2.222-2.008,3.838
		c12.873,41.22,45.162,73.51,86.389,86.383c0.3,0.092,0.612,0.135,0.912,0.135c1.304,0,2.51-0.832,2.926-2.142
		C160.957,317.905,160.057,316.191,158.448,315.683 M147.478,350.745c-50.8-15.86-90.606-55.66-106.466-106.466
		c-0.508-1.61-2.185-2.522-3.838-2.008c-1.616,0.508-2.51,2.222-2.008,3.838c16.46,52.716,57.766,94.022,110.488,110.482
		c0.3,0.098,0.612,0.141,0.912,0.141c1.304,0,2.51-0.839,2.926-2.149C149.994,352.974,149.094,351.254,147.478,350.745
		 M240.619,52.704c-1.628-0.508-3.33,0.404-3.838,2.008c-0.502,1.616,0.404,3.33,2.008,3.832
		c45.064,14.067,80.359,49.361,94.42,94.42c0.416,1.31,1.622,2.149,2.926,2.149c0.3,0,0.606-0.043,0.912-0.141
		c1.61-0.502,2.51-2.216,2.008-3.832C324.394,104.165,287.593,67.364,240.619,52.704 M235.146,70.241
		c-1.64-0.52-3.33,0.398-3.838,2.008c-0.502,1.616,0.398,3.33,2.008,3.832c39.304,12.273,70.088,43.057,82.361,82.361
		c0.41,1.31,1.622,2.149,2.926,2.149c0.294,0,0.606-0.043,0.912-0.141c1.616-0.502,2.51-2.216,2.008-3.832
		C308.656,115.397,276.361,83.108,235.146,70.241 M356.591,145.66c-16.466-52.722-57.766-94.028-110.488-110.488
		c-1.64-0.52-3.33,0.398-3.838,2.008c-0.502,1.616,0.392,3.33,2.008,3.832c50.812,15.866,90.612,55.666,106.472,106.472
		c0.41,1.31,1.616,2.149,2.92,2.149c0.3,0,0.612-0.043,0.918-0.141C356.193,148.99,357.093,147.276,356.591,145.66 M195.879,202
		c-3.379,0-6.121-2.742-6.121-6.121c0-3.373,2.742-6.121,6.121-6.121c3.373,0,6.121,2.748,6.121,6.121
		C202,199.258,199.252,202,195.879,202 M195.879,183.636c-6.764,0-12.242,5.485-12.242,12.242c0,6.764,5.478,12.242,12.242,12.242
		c6.758,0,12.242-5.478,12.242-12.242C208.121,189.121,202.637,183.636,195.879,183.636 M195.879,250.97
		c-30.38,0-55.091-24.711-55.091-55.091c0-30.373,24.711-55.091,55.091-55.091c30.373,0,55.091,24.717,55.091,55.091
		C250.97,226.258,226.252,250.97,195.879,250.97 M195.879,128.545c-37.186,0-67.333,30.147-67.333,67.333
		c0,37.192,30.147,67.333,67.333,67.333s67.333-30.141,67.333-67.333C263.212,158.692,233.065,128.545,195.879,128.545
		 M195.879,379.515c-101.257,0-183.636-82.373-183.636-183.636c0-101.257,82.379-183.636,183.636-183.636
		s183.636,82.379,183.636,183.636C379.515,297.142,297.136,379.515,195.879,379.515 M195.879,0C87.699,0,0,87.699,0,195.879
		c0,108.186,87.699,195.879,195.879,195.879s195.879-87.692,195.879-195.879C391.758,87.699,304.059,0,195.879,0"/>
</g>
<g>
</g>
<g>
</g>
<g>
</g>
<g>
</g>
<g>
</g>
<g>
</g>
<g>
</g>
<g>
</g>
<g>
</g>
<g>
</g>
<g>
</g>
<g>
</g>
<g>
</g>
<g>
</g>
<g>
</g>
</svg>
